<svg width="24" height="24" fill="none" xmlns="http://www.w3.org/2000/svg"><path fill-rule="evenodd" clip-rule="evenodd" d="M12 1.895C6.417 1.895 1.895 6.423 1.895 12c0 4.466 2.897 8.25 6.91 9.59.503.093.689-.217.689-.49 0-.242-.007-.875-.013-1.718-2.81.608-3.405-1.353-3.405-1.353-.46-1.166-1.123-1.476-1.123-1.476-.918-.627.068-.614.068-.614 1.011.074 1.55 1.042 1.55 1.042.9 1.545 2.364 1.098 2.941.837.093-.65.354-1.098.64-1.352-2.246-.254-4.604-1.123-4.604-4.994 0-1.104.391-2.003 1.042-2.71-.105-.255-.452-1.284.1-2.674 0 0 .85-.273 2.779 1.036a9.807 9.807 0 0 1 2.53-.341 9.844 9.844 0 0 1 2.532.341c1.929-1.309 2.779-1.036 2.779-1.036.552 1.39.205 2.42.1 2.674.644.707 1.035 1.606 1.035 2.71 0 3.884-2.363 4.734-4.615 4.988.36.31.688.93.688 1.873 0 1.353-.012 2.438-.012 2.773 0 .273.18.583.695.484 4.013-1.34 6.904-5.124 6.904-9.584 0-5.583-4.522-10.111-10.105-10.111Z" fill="#191717"/></svg>