<svg xmlns="http://www.w3.org/2000/svg" width="500" zoomAndPan="magnify" viewBox="0 0 375 375" height="500" preserveAspectRatio="xMidYMid meet" xmlns:v="https://vecta.io/nano"><defs><clipPath id="A"><path d="M10.625 10.625h354v354h-354zm0 0" clip-rule="nonzero"/></clipPath><clipPath id="B"><path d="M163.367 95.961h48.141v128.984h-48.141zm0 0" clip-rule="nonzero"/></clipPath><clipPath id="C"><path d="M169 242h37v36.961h-37zm0 0" clip-rule="nonzero"/></clipPath></defs><g clip-path="url(#A)"><path fill="#d1d2d6" d="M187.496 364.367c-97.715 0-176.871-79.703-176.871-176.871S89.781 10.625 187.496 10.625s176.871 79.156 176.871 176.871-79.703 176.871-176.871 176.871zm0-342.824c-91.711 0-165.953 74.242-165.953 165.953s74.242 165.953 165.953 165.953 165.953-74.242 165.953-165.953S278.66 21.543 187.496 21.543zm0 0"/></g><g clip-path="url(#B)"><path fill="#d1d2d6" d="M187.406 95.961c-14.516 0-25.762 12.793-23.812 27.207l13.477 91.863c.68 5.184 5.117 9.086 10.367 9.086 5.234 0 9.672-3.902 10.387-9.086l13.473-91.863c1.867-14.414-9.363-27.207-23.891-27.207"/></g><g clip-path="url(#C)"><path fill="#d1d2d6" d="M187.406 242.414c-10.125 0-18.301 8.191-18.301 18.32a18.29 18.29 0 1 0 36.602 0c0-10.129-8.176-18.32-18.301-18.32"/></g></svg>